<svg width="12" height="12" viewBox="0 0 12 12" fill="none" xmlns="http://www.w3.org/2000/svg">
<path d="M6 8.5C6.11667 8.5 6.21458 8.46042 6.29375 8.38125C6.37292 8.30208 6.4125 8.20417 6.4125 8.0875C6.4125 7.97083 6.37292 7.87292 6.29375 7.79375C6.21458 7.71458 6.11667 7.675 6 7.675C5.88333 7.675 5.78542 7.71458 5.70625 7.79375C5.62708 7.87292 5.5875 7.97083 5.5875 8.0875C5.5875 8.20417 5.62708 8.30208 5.70625 8.38125C5.78542 8.46042 5.88333 8.5 6 8.5ZM5.6625 6.5875H6.4125V3.425H5.6625V6.5875ZM6 11C5.31667 11 4.67083 10.8687 4.0625 10.6062C3.45417 10.3438 2.92292 9.98542 2.46875 9.53125C2.01458 9.07708 1.65625 8.54583 1.39375 7.9375C1.13125 7.32917 1 6.67917 1 5.9875C1 5.30417 1.13125 4.65833 1.39375 4.05C1.65625 3.44167 2.01458 2.9125 2.46875 2.4625C2.92292 2.0125 3.45417 1.65625 4.0625 1.39375C4.67083 1.13125 5.32083 1 6.0125 1C6.69583 1 7.34167 1.13125 7.95 1.39375C8.55833 1.65625 9.0875 2.0125 9.5375 2.4625C9.9875 2.9125 10.3438 3.44167 10.6062 4.05C10.8687 4.65833 11 5.30833 11 6C11 6.68333 10.8687 7.32917 10.6062 7.9375C10.3438 8.54583 9.9875 9.07708 9.5375 9.53125C9.0875 9.98542 8.55833 10.3438 7.95 10.6062C7.34167 10.8687 6.69167 11 6 11ZM6.0125 10.25C7.1875 10.25 8.1875 9.83542 9.0125 9.00625C9.8375 8.17708 10.25 7.17083 10.25 5.9875C10.25 4.8125 9.8375 3.8125 9.0125 2.9875C8.1875 2.1625 7.18333 1.75 6 1.75C4.825 1.75 3.82292 2.1625 2.99375 2.9875C2.16458 3.8125 1.75 4.81667 1.75 6C1.75 7.175 2.16458 8.17708 2.99375 9.00625C3.82292 9.83542 4.82917 10.25 6.0125 10.25Z" fill="#D72700"/>
</svg>
